<svg width="457" height="164" viewBox="0 0 457 164" fill="none" xmlns="http://www.w3.org/2000/svg">
<path d="M38.3497 1.63562L38.5913 10.1166L23.8553 10.6012V50.0378H14.7963V10.8435L0.241573 11.3282L0 2.84718L38.3497 1.63562Z" fill="white"/>
<path d="M53.2692 1.15099V19.0822C56.3493 17.386 60.154 16.3562 64.2004 16.3562C72.2931 16.3562 78.7552 20.6572 78.7552 31.0161V50.0983H69.6358L69.6962 34.0451C69.6962 27.6843 67.2804 24.8371 62.5094 24.8371C58.7046 24.8371 55.6849 25.6852 53.2692 26.9574V50.0983H44.2102V1.63562L53.2692 1.15099Z" fill="white"/>
<path d="M103.021 50.7647C95.5926 50.7647 85.6881 47.0694 85.6881 35.5595C85.6881 23.6861 93.9016 16.4773 103.444 16.4773C114.496 16.4773 118.723 22.6563 118.723 28.0478C118.723 33.8027 115.462 37.4375 103.746 37.4375C101.149 37.4375 98.2499 37.2557 94.7471 36.4682C95.653 40.2846 99.035 42.2231 103.444 42.1626C108.336 42.102 111.416 41.4962 115.281 39.3154L118.723 46.1607C113.046 49.9166 107.249 50.7647 103.021 50.7647ZM95.1699 30.2286C98.0687 31.0767 100.484 31.2585 103.021 31.2585C107.067 31.2585 110.087 30.5921 110.087 28.0478C110.087 26.0487 107.007 24.9583 103.444 24.9583C99.2162 24.9583 96.4381 27.1997 95.1699 30.2286Z" fill="white"/>
<path d="M138.648 3.27123H138.829C144.868 1.33272 151.632 0 158.396 0C166.67 0 174.159 3.75586 174.159 12.5397C174.159 16.9014 172.408 20.7178 169.509 23.5044C174.219 25.3823 177.541 28.8959 177.541 34.4691C177.541 43.4347 172.347 50.1589 159.061 50.0983L146.076 50.0378L138.648 50.0983V3.27123ZM154.833 29.1988L147.707 29.3199V41.6174H155.498C162.382 41.6174 167.818 39.6183 167.818 35.4989C167.818 30.4104 162.926 29.1988 154.833 29.1988ZM147.707 21.2024L153.686 21.0207C159.725 20.839 164.798 19.1428 164.798 13.8725C164.798 10.056 161.356 8.54155 156.887 8.54155C153.082 8.54155 150.123 9.14734 147.707 9.87428V21.2024Z" fill="white"/>
<path d="M194.403 35.8624C194.403 40.8904 195.067 42.2837 196.698 42.2837C197.604 42.2837 198.57 42.1626 199.476 41.7991L200.14 49.1291C198.389 50.3406 196.577 50.8253 193.739 50.8253C187.095 50.8253 185.344 45.555 185.344 38.1038V1.51446L194.403 1.02983V35.8624Z" fill="white"/>
<path d="M239.954 36.4682C239.954 40.3452 240.98 41.0116 242.309 41.0116C243.155 41.0116 244.06 40.8904 244.906 40.5875L245.329 48.9473C244.06 49.856 241.343 50.583 238.685 50.583C235.907 50.583 233.129 49.7349 231.74 46.1002C227.694 49.3108 223.708 50.6435 218.393 50.6435C212.898 50.6435 205.59 46.5848 205.59 36.7711C205.59 24.4737 214.287 16.3562 227.935 16.3562C231.921 16.3562 235.907 16.9014 239.954 18.1129V36.4682ZM214.83 35.0143C214.83 39.5577 217.427 41.9202 221.232 41.9202C225.218 41.9202 228.117 40.2241 230.895 37.498V25.0795L228.177 25.0189C219.903 25.0189 214.83 28.4718 214.83 35.0143Z" fill="white"/>
<path d="M267.737 50.7647C260.43 50.7647 250.767 47.6752 250.767 35.5595C250.767 23.6861 259.282 16.4167 269.368 16.4167C275.105 16.4167 278.548 17.4466 282.051 19.6274L278.729 27.1997C276.555 26.0487 273.716 25.3218 269.972 25.3218C263.57 25.3218 260.068 29.5017 260.068 34.1056C260.068 39.3154 263.027 42.0414 268.16 41.9808C272.569 41.9202 275.407 41.3145 278.85 39.4971L281.93 46.6454C276.857 49.9772 271.542 50.7647 267.737 50.7647Z" fill="white"/>
<path d="M298.329 1.3933L297.967 32.1065L310.408 16.7802H320.373L306.905 32.7123L320.675 50.0378H310.287L297.906 33.7422L297.725 50.0983L288.968 49.7954L289.089 2.84718L298.329 1.3933Z" fill="white"/>
<path d="M340.95 37.6192C346.265 40.5875 350.311 42.2231 356.35 42.2231C362.692 42.2231 365.289 40.8904 365.289 37.6798C365.289 33.8633 361.725 32.3489 354.78 30.4104C345.902 27.9266 338.957 24.8977 338.957 15.0234C338.957 7.14825 345.359 0.726939 355.988 0.726939C364.262 0.78752 370.12 3.27123 374.468 5.57321L370.664 13.5696C366.557 11.3282 362.39 9.51081 355.988 9.51081C350.13 9.51081 348.016 11.9945 348.016 15.1446C348.016 18.4764 350.371 20.0514 357.196 21.9294C366.678 24.5948 374.287 27.3814 374.287 37.498C374.287 46.2819 367.765 51.007 356.35 51.007C348.499 51.007 342.883 48.705 336.964 45.4944L340.95 37.6192Z" fill="white"/>
<path d="M396.73 50.7647C389.302 50.7647 379.397 47.0694 379.397 35.5595C379.397 23.6861 387.611 16.4773 397.153 16.4773C408.205 16.4773 412.433 22.6563 412.433 28.0478C412.433 33.8027 409.171 37.4375 397.455 37.4375C394.858 37.4375 391.959 37.2557 388.456 36.4682C389.362 40.2846 392.744 42.2231 397.153 42.1626C402.045 42.102 405.125 41.4962 408.99 39.3154L412.433 46.1607C406.756 49.9166 400.958 50.7647 396.73 50.7647ZM388.879 30.2286C391.778 31.0767 394.194 31.2585 396.73 31.2585C400.777 31.2585 403.796 30.5921 403.796 28.0478C403.796 26.0487 400.716 24.9583 397.153 24.9583C392.926 24.9583 390.147 27.1997 388.879 30.2286Z" fill="white"/>
<path d="M451.625 36.4682C451.625 40.3452 452.652 41.0116 453.98 41.0116C454.826 41.0116 455.732 40.8904 456.577 40.5875L457 48.9473C455.732 49.856 453.014 50.583 450.357 50.583C447.579 50.583 444.801 49.7349 443.412 46.1002C439.365 49.3108 435.379 50.6435 430.065 50.6435C424.569 50.6435 417.261 46.5848 417.261 36.7711C417.261 24.4737 425.958 16.3562 439.607 16.3562C443.593 16.3562 447.579 16.9014 451.625 18.1129V36.4682ZM426.501 35.0143C426.501 39.5577 429.098 41.9202 432.903 41.9202C436.889 41.9202 439.788 40.2241 442.566 37.498V25.0795L439.848 25.0189C431.574 25.0189 426.501 28.4718 426.501 35.0143Z" fill="white"/>
<path d="M10.7709 161.881V85.1819L2.4549 83.9902V76.732L10.7709 76.1903L26.971 75.3237V148.664C50.0832 148.339 57.8592 126.348 58.8312 106.957V85.0735L50.5152 83.8819V76.6237L58.8312 76.082L75.0313 75.2153V148.448C107.755 146.823 111.319 111.181 105.163 85.7235C92.3114 88.1068 87.1273 83.3402 87.1273 76.5153C87.1273 74.9987 87.8833 73.6987 88.7474 73.157C90.4754 74.8904 91.9874 75.432 95.2274 74.5654C97.3874 73.9154 99.4394 72.832 101.491 72.2904C103.543 71.7487 105.811 71.9654 106.675 72.2904C106.999 70.8821 107.431 68.3904 109.915 65.4655C112.291 62.6489 116.503 60.3739 117.151 58.7489C117.475 57.9906 117.475 57.2323 117.368 56.6906C122.444 57.2323 123.632 61.8905 123.632 65.1405C123.632 68.7154 122.66 73.5904 119.096 77.9236C119.852 79.5486 120.284 80.9569 120.824 82.6902H120.932C129.68 118.656 118.555 172.93 58.8312 162.314V150.181C49.1111 161.339 33.7751 167.514 10.7709 161.881Z" fill="white"/>
<path d="M196.709 162.639V128.081H155.669V162.639H139.469V85.2902L131.153 84.0985V76.8403L139.469 76.2987L155.669 75.432V114.756L196.709 113.131V85.2902L188.393 84.0985V76.8403L196.709 76.2987L212.909 75.432V162.639H196.709Z" fill="white"/>
<path d="M300.601 162.639L284.4 162.856L284.076 138.914H244.224V139.023L244.44 162.747H228.24L228.024 139.239C227.808 106.523 238.716 68.3904 299.413 74.782L300.601 162.639ZM244.872 125.698L283.86 123.965L283.428 89.9484C257.076 89.7318 247.356 105.44 244.872 125.698Z" fill="white"/>
<path d="M321.825 162.639V85.2902L313.509 84.0985V76.8403L321.825 76.2987L338.025 75.432V149.206L378.093 147.473V162.639H321.825Z" fill="white"/>
<path d="M454.58 75.5403V91.7901H409.112V113.673L447.992 111.831V126.781H409.112V149.314L454.58 147.473V162.639H392.911V86.9152L384.595 85.7235V78.4653L392.911 77.9236L454.58 75.5403Z" fill="white"/>
</svg>
