<svg width="35" height="31" viewBox="0 0 35 31" fill="none" xmlns="http://www.w3.org/2000/svg">
<path d="M2.40196 30.3878V8.23067L0 7.88642V5.78963L2.40196 5.63316L7.0811 5.38279V26.5697C13.7567 26.4758 16.0027 20.1229 16.2834 14.521V8.19937L13.8815 7.85512V5.75834L16.2834 5.60186L20.9626 5.3515V26.5071C30.4144 26.0377 31.4439 15.7415 29.6658 8.38715C25.9537 9.07564 24.4563 7.69865 24.4563 5.72704C24.4563 5.28891 24.6747 4.91336 24.9242 4.75689C25.4234 5.25761 25.8601 5.41409 26.7959 5.16373C27.4198 4.97595 28.0125 4.663 28.6052 4.50653C29.1979 4.35005 29.8529 4.41264 30.1025 4.50653C30.1961 4.09969 30.3209 3.37989 31.0383 2.53492C31.7246 1.72124 32.9412 1.06404 33.1283 0.594611C33.2219 0.375543 33.2219 0.156476 33.1907 0C34.6569 0.156476 35 1.50217 35 2.44103C35 3.47378 34.7192 4.88207 33.6898 6.13388C33.9082 6.60331 34.033 7.01015 34.1889 7.51088H34.2201C36.7469 17.9009 33.5339 33.5799 16.2834 30.5129V27.0079C13.4759 30.2313 9.04635 32.0151 2.40196 30.3878Z" fill="white"/>
</svg>
